name GIL04_slow3Moments.mot
datacolumns 7
datarows 81
range 0.13333334 0.80000001
endheader

                time	          RHipMoment	          LHipMoment	         RKneeMoment	         LKneeMoment	        RAnkleMoment	        LAnkleMoment	
          0.13333334	        366.31213379	       -140.44345093	        326.06484985	         14.70768166	        -13.43950844	        -26.65425110	
          0.14166667	        404.24523926	       -132.50186157	        320.53555298	         23.53628731	          2.20077014	        -26.72942162	
          0.15000001	        424.33749390	       -124.67996979	        312.83145142	         34.53392792	         22.59041786	        -25.95013046	
          0.15833333	        417.76370239	       -117.19747162	        306.20596313	         46.42337418	         48.22288513	        -24.42971992	
          0.16666667	        381.61126709	       -110.17849731	        304.50637817	         57.72071457	         77.18168640	        -22.37084579	
          0.17500000	        337.69274902	       -103.68292236	        302.85791016	         67.05528259	        106.04096985	        -20.03090096	
          0.18333334	        308.93624878	        -97.74287415	        292.80160522	         73.43724060	        134.79258728	        -17.67206192	
          0.19166666	        293.73678589	        -92.32200623	        275.08340454	         76.39498138	        163.74580383	        -15.51195240	
          0.20000000	        274.48095703	        -87.19715118	        257.48568726	         75.95365906	        192.43229675	        -13.69004726	
          0.20833334	        251.52117920	        -81.89376831	        239.86131287	         72.50202179	        219.93716431	        -12.25683975	
          0.21666667	        236.27354431	        -75.77559662	        218.40835571	         66.63558197	        247.46965027	        -11.18538570	
          0.22499999	        225.89479065	        -68.28321075	        194.08226013	         59.04613495	        275.70678711	        -10.39814091	
          0.23333333	        211.15652466	        -59.21182632	        172.02267456	         50.46730423	        302.02285767	         -9.79929638	
          0.24166667	        195.39498901	        -48.89508057	        150.16821289	         41.64024734	        327.49121094	         -9.30570507	
          0.25000000	        179.39222717	        -38.22358704	        128.61003113	         33.26570129	        353.20941162	         -8.86837864	
          0.25833333	        159.95539856	        -28.45978546	        110.20337677	         25.92382813	        378.63507080	         -8.47901058	
          0.26666665	        142.83969116	        -20.85418510	         92.51892853	         19.96242142	        406.62197876	         -8.16184998	
          0.27500001	        130.66351318	        -16.21372795	         75.17580414	         15.40051270	        439.36346436	         -7.95524216	
          0.28333333	        123.04598236	        -14.63432598	         56.03776932	         11.91729546	        476.51199341	         -7.89081430	
          0.29166669	        114.47846985	        -15.48207092	         37.53942108	          8.95513439	        514.87194824	         -7.97928619	
          0.30000001	        105.61068726	        -17.59576225	         19.07786560	          5.90662146	        553.64910889	         -8.20520306	
          0.30833334	         98.81266022	        -19.61907768	         -1.99199581	          2.30852008	        591.74157715	         -8.52973175	
          0.31666666	         89.79911804	        -20.34714317	        -23.34143829	         -2.03535080	        628.22094727	         -8.90108776	
          0.32499999	         79.01058960	        -19.00740242	        -45.46712875	         -7.02255106	        662.67938232	         -9.26814079	
          0.33333331	         64.68167114	        -15.40303707	        -66.92182159	        -12.29866219	        694.81542969	         -9.59213352	
          0.34166667	         51.55574036	         -9.85812473	        -89.64679718	        -17.37425995	        724.23980713	         -9.85398102	
          0.34999999	         37.84788132	         -2.99714231	       -111.59449768	        -21.79243279	        751.37963867	        -10.05715466	
          0.35833335	         24.83512306	          4.52871180	       -133.51431274	        -25.29030991	        776.54455566	        -10.22841358	
          0.36666667	         12.90968895	         12.23640156	       -155.40766907	        -27.87450790	        800.67425537	        -10.41369247	
          0.37500000	          4.01400185	         19.87273598	       -178.02183533	        -29.79030800	        823.20751953	        -10.66483212	
          0.38333333	         -1.60059297	         27.39430428	       -203.05421448	        -31.44135094	        844.20153809	        -11.02054691	
          0.39166668	        -29.72814560	         34.89781570	       -214.33741760	        -33.29893875	        863.28601074	        -11.48839378	
          0.40000001	        -39.80794144	         42.47684479	       -234.16278076	        -35.79146957	        880.08709717	        -12.03284264	
          0.40833333	        -43.53532028	         50.07036972	       -256.98449707	        -39.19583511	        895.92498779	        -12.57430267	
          0.41666666	        -52.92662811	         57.45090485	       -276.58975220	        -43.60057068	        911.21057129	        -13.00364876	
          0.42500001	        -63.42516327	         64.33183289	       -294.83847046	        -48.96179962	        925.30297852	        -13.21296692	
          0.43333334	        -73.06453705	         70.57044220	       -313.31231689	        -55.18408966	        940.13732910	        -13.13272285	
          0.44166666	        -82.22003937	         76.25479889	       -331.22528076	        -62.18300629	        954.97680664	        -12.75823784	
          0.44999999	        -94.05209351	         81.79345703	       -346.85089111	        -69.95867920	        970.27545166	        -12.15248013	
          0.45833334	       -104.76395416	         87.93311310	       -361.78741455	        -78.66622162	        985.89117432	        -11.42138577	
          0.46666667	       -119.48374176	         95.63375854	       -373.43518066	        -88.61244965	       1002.46667480	        -10.66805744	
          0.47499999	       -132.01376343	        105.76070404	       -385.62463379	       -100.13912964	       1020.87744141	         -9.94245338	
          0.48333332	       -151.50695801	        118.81708527	       -392.91488647	       -113.44977570	       1039.20593262	         -9.21010780	
          0.49166667	       -169.14825439	        134.68373108	       -400.15570068	       -128.45719910	       1058.04846191	         -8.35975552	
          0.50000000	       -187.42358398	        152.73944092	       -406.40460205	       -144.67770386	       1078.05883789	         -7.25182486	
          0.50833333	       -211.64248657	        172.02723694	       -408.02984619	       -161.17597961	       1098.17114258	         -5.78802347	
          0.51666665	       -235.04869080	        191.38708496	       -408.29052734	       -176.59596252	       1118.91198730	         -3.97209167	
          0.52499998	       -257.57958984	        209.43516541	       -405.99798584	       -189.24977112	       1138.98706055	         -1.93644321	
          0.53333330	       -285.02648926	        224.26814270	       -396.91903687	       -197.20982361	       1156.43383789	          0.07692814	
          0.54166663	       -310.54000854	        233.16607666	       -384.37344360	       -198.42596436	       1170.73718262	          1.77458036	
          0.55000001	       -339.45910645	        232.73754883	       -365.52487183	       -190.98022461	       1181.60266113	          2.88735151	
          0.55833334	       -371.75442505	        219.39364624	       -340.83419800	       -173.53520203	       1189.02319336	          3.23634648	
          0.56666666	       -402.71658325	        190.46485901	       -312.09890747	       -145.90966797	       1190.58349609	          2.76451492	
          0.57499999	       -431.46560669	        145.61605835	       -279.95593262	       -109.59905243	       1185.94226074	          1.52816641	
          0.58333337	       -455.78326416	         87.97772980	       -245.84765625	        -68.02584076	       1175.73303223	         -0.33314639	
          0.59166670	       -473.35858154	         24.35097313	       -210.11592102	        -26.24529457	       1157.87658691	         -2.62615538	
          0.60000002	       -485.70422363	        -36.19654465	       -171.29273987	         10.09315014	       1130.95568848	         -5.12270260	
          0.60833335	       -495.43054199	         60.33956528	       -128.71589661	        -37.14542007	       1096.08532715	        -13.79592323	
          0.61666667	       -496.04827881	       1223.18139648	        -86.06156921	       -604.09997559	       1052.26159668	        -98.79293060	
          0.62500000	       -487.46356201	        786.66400146	        -42.18017960	       -385.63790894	        992.68597412	       -114.94960022	
          0.63333333	       -463.32461548	        344.62960815	         -2.31670928	       -138.05400085	        913.05487061	       -190.66816711	
          0.64166665	       -424.67694092	       -292.04348755	         29.89196777	        208.68481445	        822.17132568	       -254.07615662	
          0.64999998	       -381.15347290	        -27.56786919	         56.94836426	         72.09180450	        720.69995117	       -256.44332886	
          0.65833336	       -333.21923828	        518.66583252	         76.45963287	       -203.77902222	        610.49743652	       -254.03460693	
          0.66666669	       -297.76428223	        535.46978760	         92.85046387	       -196.27636719	        494.89801025	       -272.81292725	
          0.67500001	       -265.29827881	        342.20272827	         99.11172485	        -77.81998444	        381.43298340	       -289.48950195	
          0.68333334	       -245.22389221	        381.67468262	         99.21627045	        -80.89099121	        277.78469849	       -289.03674316	
          0.69166666	       -243.96693420	        516.31390381	        100.34461212	       -133.80593872	        191.39039612	       -277.31851196	
          0.69999999	       -249.98326111	        463.74514771	        102.24335480	        -83.90631866	        126.40058899	       -273.87524414	
          0.70833331	       -254.00094604	        349.55697632	        102.83467102	         -4.04139996	         77.65647125	       -267.46005249	
          0.71666664	       -241.40910339	        369.57919312	         92.10385132	          7.81933689	         39.54442596	       -258.89529419	
          0.72500002	       -219.51611328	        406.41107178	         76.83364868	          8.58388329	         10.93640041	       -251.83918762	
          0.73333335	       -196.31597900	        427.02905273	         62.91772461	         12.65400696	        -10.29625511	       -245.55534363	
          0.74166667	       -184.70343018	        442.48187256	         59.35338974	         13.12477875	        -25.81451416	       -239.28605652	
          0.75000000	       -130.70805359	        442.88714600	         26.33739853	         13.68030167	        -33.97243500	       -233.99203491	
          0.75833333	       -128.00738525	        441.83700562	         39.01514053	          5.52213430	        -34.50153351	       -226.80552673	
          0.76666665	       -122.33695984	        438.75112915	         50.76489639	         -9.46786308	        -33.05046844	       -219.58209229	
          0.77499998	       -114.25065613	        419.57632446	         60.49223709	        -23.27076721	        -29.82898140	       -211.52667236	
          0.78333336	       -105.43285370	        385.14172363	         67.67661285	        -34.34251785	        -25.41340828	       -202.65518188	
          0.79166669	        -98.16863251	        352.02130127	         72.25122833	        -50.05366135	        -20.59328651	       -190.01167297	
          0.80000001	        -94.24304962	        324.62203979	         74.34283447	        -69.89432526	        -16.15207672	       -174.23976135	
